<svg id="Capa_1" enable-background="new 0 0 512.002 512.002" height="512" viewBox="0 0 512.002 512.002" width="512" xmlns="http://www.w3.org/2000/svg"><path d="m275.767 129.886c-23.618 0-42.832 19.214-42.832 42.832v53.944c0 23.617 19.214 42.832 42.832 42.832s42.832-19.214 42.832-42.832v-53.944c-.001-23.618-19.215-42.832-42.832-42.832zm22.831 96.776c0 12.589-10.242 22.832-22.832 22.832s-22.832-10.242-22.832-22.832v-53.944c0-12.589 10.243-22.832 22.832-22.832s22.831 10.242 22.831 22.832v53.944z"/><path d="m275.767 87.662c-46.9 0-85.056 38.156-85.056 85.056v53.944c0 46.9 38.156 85.056 85.056 85.056 46.899 0 85.055-38.156 85.055-85.056v-53.944c0-46.901-38.155-85.056-85.055-85.056zm65.055 139c0 35.872-29.184 65.056-65.055 65.056-35.872 0-65.056-29.184-65.056-65.056v-53.944c0-35.872 29.184-65.056 65.056-65.056s65.056 29.184 65.056 65.056v53.944z"/><path d="m480.89 362.116h-5.981l15.526-15.526c13.239-13.24 20.529-30.839 20.529-49.558 0-16.324-5.625-31.35-15.019-43.277 10.178-11.299 14.869-26.89 12.168-42.209-2.902-16.457-13.958-30.154-28.683-36.867 6.966-14.609 6.63-32.206-1.726-46.679s-23.427-23.563-39.562-24.834c1.55-16.11-4.785-32.531-17.587-43.273-12.802-10.743-30.074-14.13-45.669-9.806-4.054-15.668-15.624-28.934-31.328-34.649-15.704-5.716-33.092-2.989-46.269 6.406-9.167-13.337-24.576-21.844-41.288-21.844-16.71 0-32.12 8.509-41.288 21.845-13.176-9.396-30.566-12.121-46.27-6.406-15.703 5.715-27.271 18.981-31.326 34.648-15.596-4.323-32.869-.936-45.67 9.805-8.759 7.35-14.636 17.396-16.856 28.425-.231.029-.464.05-.694.08-5.476.724-9.327 5.749-8.603 11.224s5.75 9.33 11.224 8.603c2.827-.374 5.699-.563 8.538-.563 27.911 0 52.678 17.875 61.625 44.466.936 2.798.727 5.792-.589 8.433s-3.582 4.61-6.38 5.547c-2.797.936-5.792.727-8.433-.589s-4.61-3.582-5.552-6.395c-5.884-17.488-22.229-29.238-40.672-29.238-23.617 0-42.831 19.214-42.831 42.832v53.944c0 23.617 19.214 42.832 42.831 42.832 18.443 0 34.788-11.75 40.677-29.253 1.933-5.776 8.208-8.899 13.98-6.969 5.775 1.933 8.902 8.205 6.974 13.965-8.952 26.605-33.72 44.481-61.63 44.481-22.935 0-43.121-11.941-54.709-29.922-.127-.211-.257-.421-.4-.623-6.292-10.011-9.947-21.839-9.947-34.51v-53.944c0-4.786.531-9.573 1.578-14.228 1.212-5.389-2.174-10.739-7.563-11.951-5.389-1.21-10.739 2.174-11.95 7.562-1.37 6.093-2.065 12.357-2.065 18.617v53.944c0 14.415 3.616 27.996 9.971 39.905-5.93 10.161-8.148 22.17-6.082 33.889 2.902 16.456 13.958 30.153 28.683 36.867-6.965 14.608-6.629 32.208 1.726 46.679 8.356 14.473 23.428 23.563 39.563 24.834-1.548 16.109 4.786 32.532 17.587 43.273 12.801 10.743 30.072 14.13 45.67 9.806 4.054 15.667 15.624 28.933 31.327 34.648 15.703 5.716 33.093 2.991 46.27-6.405 9.168 13.335 24.577 21.844 41.288 21.844s32.12-8.509 41.289-21.844c13.176 9.395 30.566 12.12 46.269 6.405s27.272-18.981 31.327-34.648c15.595 4.322 32.869.935 45.67-9.806 8.584-7.203 14.402-16.998 16.721-27.769h43.613c17.155 0 31.112-13.957 31.112-31.112s-13.959-31.112-31.114-31.112zm-73.191 74.672c-10.092 8.469-24.813 9.322-35.796 2.074-3.162-2.085-7.229-2.207-10.508-.313-3.279 1.893-5.208 5.477-4.982 9.256.785 13.136-7.314 25.458-19.694 29.964-12.383 4.506-26.506.273-34.347-10.294-2.256-3.042-6.039-4.548-9.767-3.889-3.729.658-6.767 3.365-7.848 6.995-3.755 12.612-15.58 21.421-28.755 21.421s-25-8.809-28.754-21.421c-1.081-3.629-4.119-6.337-7.848-6.995-3.731-.658-7.51.848-9.767 3.889-7.843 10.567-21.967 14.8-34.348 10.294-12.38-4.506-20.479-16.828-19.694-29.964.226-3.78-1.703-7.363-4.982-9.256-3.28-1.894-7.347-1.771-10.507.313-10.984 7.247-25.705 6.395-35.797-2.074-10.093-8.469-13.489-22.817-8.259-34.893 1.505-3.475.918-7.501-1.516-10.402-2.435-2.901-6.299-4.181-9.981-3.299-12.799 3.053-26.342-2.783-32.929-14.192-6.587-11.41-4.871-26.055 4.174-35.613 2.603-2.75 3.429-6.735 2.134-10.293-1.295-3.559-4.489-6.08-8.251-6.514-13.073-1.508-23.801-11.624-26.089-24.598-.674-3.821-.583-7.693.205-11.412 15.485 16.099 37.217 26.147 61.266 26.147 36.507 0 68.893-23.35 80.591-58.118 5.433-16.233-3.353-33.86-19.586-39.294-16.234-5.434-33.861 3.354-39.289 19.572-3.143 9.341-11.87 15.616-21.716 15.616-12.589 0-22.831-10.242-22.831-22.832v-53.944c0-12.589 10.242-22.832 22.831-22.832 9.846 0 18.573 6.276 21.711 15.601 2.632 7.864 8.169 14.232 15.59 17.932 7.423 3.7 15.84 4.288 23.704 1.655 7.864-2.632 14.232-8.168 17.931-15.59 3.7-7.422 4.287-15.84 1.65-23.718-10.589-31.471-38.147-53.59-70.368-57.487 1.761-5.034 4.852-9.56 9.029-13.064 10.093-8.469 24.814-9.322 35.796-2.074 3.161 2.085 7.228 2.208 10.508.313 3.279-1.893 5.208-5.477 4.982-9.256-.785-13.137 7.314-25.458 19.694-29.964s26.505-.272 34.348 10.294c2.256 3.041 6.038 4.544 9.767 3.889 3.729-.658 6.767-3.365 7.848-6.995 3.753-12.614 15.577-21.423 28.752-21.423s25 8.809 28.755 21.421c1.081 3.629 4.119 6.337 7.848 6.995 3.73.659 7.51-.848 9.767-3.889 7.842-10.566 21.966-14.801 34.347-10.294 12.381 4.506 20.479 16.828 19.694 29.964-.226 3.78 1.703 7.363 4.982 9.257 3.28 1.894 7.347 1.772 10.508-.313 10.983-7.247 25.704-6.395 35.796 2.074 10.093 8.469 13.489 22.817 8.259 34.893-1.505 3.475-.918 7.501 1.516 10.402 2.434 2.9 6.297 4.176 9.981 3.299 12.798-3.055 26.34 2.782 32.929 14.192 6.587 11.41 4.871 26.055-4.174 35.613-2.603 2.75-3.428 6.735-2.133 10.293s4.489 6.08 8.251 6.514c13.073 1.508 23.801 11.624 26.089 24.599 1.589 9.013-1.099 18.175-6.962 24.922-11.461-8.17-25.463-12.996-40.578-12.996-31.651 0-59.48 21.371-67.678 51.975-4.424 16.559 5.447 33.631 22.006 38.055 8.021 2.143 16.397 1.034 23.586-3.122 7.186-4.156 12.323-10.86 14.468-18.878.931-3.473 3.992-5.807 7.618-5.807 4.336 0 7.863 3.527 7.863 7.863 0 2.103-.817 4.078-2.301 5.562l-68.637 68.636c-9.043 9.043-11.624 22-6.734 33.813 4.85 11.716 16.125 19.29 28.732 19.296h16.693c-1.792 4.786-4.789 9.089-8.793 12.449zm73.191-32.448h-81.085c-6.852-.003-9.583-5.317-10.257-6.946-.661-1.597-2.442-7.184 2.396-12.022l68.637-68.636c5.261-5.262 8.158-12.26 8.158-19.704 0-15.364-12.5-27.863-27.863-27.863-12.605 0-23.682 8.483-26.937 20.63 0 .002-.001.005-.002.007-.764 2.86-2.597 5.252-5.16 6.734s-5.549 1.878-8.41 1.113c-2.86-.764-5.251-2.597-6.734-5.16-1.482-2.563-1.877-5.55-1.115-8.404 5.858-21.87 25.743-37.144 48.357-37.144 27.618 0 50.087 22.469 50.087 50.087 0 13.376-5.21 25.954-14.672 35.416l-32.597 32.597c-2.86 2.86-3.715 7.161-2.167 10.898s5.194 6.173 9.239 6.173h30.124c6.127 0 11.112 4.985 11.112 11.112s-4.984 11.112-11.111 11.112z"/><path d="m282.471 403.873c-4.471 4.471-10.415 6.933-16.737 6.933-11.137 0-20.497-7.734-23.005-18.112 3.096-1.992 6.008-4.319 8.674-6.984 3.905-3.905 3.905-10.237 0-14.143s-10.237-3.905-14.143 0c-5.927 5.927-14.074 9.303-22.458 9.303-17.513 0-31.76-14.248-31.76-31.76 0-5.567 1.471-11.059 4.255-15.88 2.762-4.783 1.123-10.899-3.66-13.66-4.783-2.762-10.898-1.123-13.66 3.66-4.537 7.858-6.935 16.807-6.935 25.88 0 28.541 23.22 51.76 51.76 51.76 3.122 0 6.199-.289 9.209-.827 5.518 17.798 22.134 30.763 41.722 30.763 11.665 0 22.631-4.542 30.88-12.791 3.905-3.905 3.905-10.237 0-14.143s-10.237-3.904-14.142.001z"/><path d="m34.447 127.389c5.523 0 10-4.477 10-10s-4.477-10-10-10h-.007c-5.523 0-9.996 4.477-9.996 10s4.48 10 10.003 10z"/><path d="m314.289 372.057c-3.905 3.905-3.905 10.237 0 14.142 1.953 1.953 4.512 2.929 7.071 2.929s5.118-.977 7.071-2.929l.005-.005c3.905-3.905 3.903-10.234-.002-14.139-3.906-3.907-10.24-3.903-14.145.002z"/></svg>